<svg width="106" height="22" viewBox="0 0 106 22" fill="none" xmlns="http://www.w3.org/2000/svg">
<path d="M61.1246 5.97613C61.0024 5.97452 60.8825 6.00818 60.7801 6.07285C60.6776 6.13752 60.5971 6.23029 60.5488 6.33944C60.5005 6.44859 60.4866 6.56921 60.5088 6.68605C60.531 6.80289 60.5883 6.91071 60.6735 6.99586C60.7587 7.08102 60.868 7.13969 60.9875 7.16446C61.107 7.18923 61.2313 7.17898 61.3448 7.13501C61.4583 7.09105 61.5558 7.01534 61.6251 6.91745C61.6944 6.81957 61.7322 6.70391 61.7339 6.5851C61.7359 6.50598 61.7216 6.42728 61.6919 6.3536C61.6622 6.27992 61.6176 6.21275 61.5609 6.15603C61.5041 6.09931 61.4363 6.05418 61.3614 6.02329C61.2865 5.99239 61.206 5.97636 61.1246 5.97613Z" fill="#100E0E"/>
<path d="M37.2552 13.5627C37.2552 11.5632 35.2259 10.9383 33.4327 10.388C31.5281 9.80204 30.2803 9.32877 30.2803 8.14631C30.2803 6.99515 31.4336 6.22048 33.1511 6.22048C34.0815 6.21067 34.9989 6.43348 35.8154 6.86756L35.8803 6.90463L36.299 6.35962L36.2168 6.31148C35.2785 5.82304 34.2296 5.57049 33.1654 5.57677C31.0371 5.57677 29.5522 6.63598 29.5522 8.15642C29.5522 9.73657 31.1064 10.3658 32.9838 10.9705L33.2184 11.0461C34.9087 11.5878 36.5054 12.0991 36.5054 13.5767C36.5054 15.0827 35.1002 16.0562 32.9254 16.0562C31.7398 16.0389 30.5816 15.7073 29.5755 15.0971L29.5003 15.049L29.1538 15.6455L29.2206 15.6874C30.3368 16.3645 31.6238 16.7281 32.9392 16.7379C35.4803 16.7408 37.2552 15.4341 37.2552 13.5627Z" fill="#100E0E"/>
<path d="M42.1409 16.5534L42.2152 16.5384L42.1444 15.8735L42.0489 15.8986C41.7475 15.9753 41.4373 16.0144 41.1258 16.0151C40.3116 16.0151 39.9156 15.6131 39.9156 14.7864V9.96751H42.3473V9.31032H39.9171V7.02051L39.189 7.52989V9.31128L37.8947 9.3185V9.98532H39.189V14.7864C39.189 16.0382 39.8414 16.6723 41.1273 16.6723C41.4686 16.6691 41.8086 16.6292 42.1409 16.5534Z" fill="#100E0E"/>
<path d="M49.018 15.3187V16.5363H49.7288V9.31055H49.0007V14.5007C48.4726 15.0784 47.4317 16.0153 46.2507 16.0153C45.0475 16.0153 44.4629 15.3687 44.4629 14.038V9.31055H43.7349V14.089C43.7349 15.7308 44.6391 16.6725 46.2156 16.6725C47.5089 16.6725 48.5666 15.7731 49.018 15.3187Z" fill="#100E0E"/>
<path d="M55.1743 16.6725C56.1392 16.6686 57.0664 16.3071 57.7669 15.6615V16.5358H58.4949V5.66113H57.7669V10.1175C57.0646 9.50502 56.1531 9.16879 55.2099 9.17433C53.1276 9.17433 51.5571 10.7896 51.5571 12.9321C51.5566 15.0645 53.1118 16.6725 55.1743 16.6725ZM52.3035 12.9321C52.3035 11.1353 53.5191 9.83152 55.1931 9.83152C55.6805 9.83364 56.162 9.93632 56.6056 10.1328C57.0493 10.3292 57.4451 10.6149 57.7669 10.9711V14.7746C57.459 15.1538 57.0684 15.4618 56.6233 15.6763C56.1782 15.8908 55.6897 16.0064 55.1931 16.0149C53.5177 16.0154 52.302 14.7188 52.302 12.9321H52.3035Z" fill="#100E0E"/>
<path d="M61.5035 9.31055H60.7754V16.5363H61.5035V9.31055Z" fill="#100E0E"/>
<path d="M67.0022 9.1748C64.9298 9.1748 63.3667 10.7901 63.3667 12.9326C63.3667 15.065 64.9144 16.673 66.967 16.673C67.4632 16.6633 67.9524 16.5574 68.406 16.3615C68.8596 16.1656 69.2685 15.8836 69.6087 15.5321C69.9489 15.1806 70.2136 14.7666 70.3873 14.3144C70.561 13.8622 70.6402 13.3808 70.6203 12.8984C70.6203 10.7766 69.0646 9.1748 67.0022 9.1748ZM69.8729 12.9152C69.8729 14.712 68.6573 16.0158 66.9829 16.0158C65.3188 16.0158 64.1121 14.712 64.1121 12.9152C64.1121 11.129 65.3203 9.83392 66.9829 9.83392C68.6588 9.83199 69.8744 11.129 69.8744 12.9152H69.8729Z" fill="#100E0E"/>
<path d="M76.3543 7.04821L83.0689 16.4987L83.0941 16.5339H83.7257V5.66113H82.9803V15.1483L76.2692 5.69628L76.2434 5.66113H75.6436V16.5363H76.3543V7.04821Z" fill="#100E0E"/>
<path d="M89.2395 9.1748C87.2345 9.1748 85.7788 10.7554 85.7788 12.9326C85.7788 15.2051 87.3087 16.673 89.6766 16.673C90.4702 16.6672 91.2535 16.4982 91.9752 16.1771L92.0336 16.1689V15.9667L91.9979 15.9841C91.9672 15.8921 91.9178 15.738 91.8722 15.5989L91.8435 15.5089L91.7564 15.5488C91.1064 15.8493 90.3972 16.0093 89.6776 16.0178C87.7502 16.0178 86.5777 14.8911 86.5272 12.9995H92.4384V12.6962C92.4375 10.5566 91.1822 9.1748 89.2395 9.1748ZM86.5514 12.3572C86.744 10.7968 87.7537 9.83199 89.2044 9.83199C90.6551 9.83199 91.5802 10.7737 91.6876 12.3572H86.5514Z" fill="#100E0E"/>
<path d="M96.6602 9.1748C95.9347 9.19516 95.2189 9.34192 94.5467 9.60812L94.475 9.637L94.6848 10.2716L94.77 10.2345C95.3571 9.98874 95.9866 9.85269 96.6255 9.83344C98.2059 9.83344 98.8529 10.4459 98.8529 11.9466V12.6784C98.19 12.3311 97.4506 12.1449 96.6978 12.1358C94.9897 12.1358 93.7974 13.0794 93.7974 14.4299C93.7974 15.7717 94.9358 16.673 96.628 16.673C97.4457 16.6664 98.2361 16.3864 98.8667 15.8801V16.5377H99.577V11.8772C99.5785 10.0588 98.6242 9.1748 96.6602 9.1748ZM98.8504 13.3534V15.0972C98.5769 15.3983 98.2394 15.638 97.8612 15.7995C97.483 15.961 97.0732 16.0406 96.6602 16.0327C95.3109 16.0327 94.5056 15.4333 94.5056 14.4299C94.5056 13.2744 95.6143 12.7593 96.7131 12.7593C97.4692 12.7551 98.2108 12.9612 98.8504 13.3534Z" fill="#100E0E"/>
<path d="M105.404 9.96751V9.31032H102.974V7.02051L102.246 7.52989V9.31128L100.952 9.3185V9.98532H102.246V14.7864C102.246 16.0382 102.898 16.6723 104.184 16.6723C104.526 16.6682 104.867 16.6277 105.2 16.5514L105.273 16.536L105.203 15.8735L105.108 15.8986C104.806 15.9753 104.496 16.0144 104.184 16.0151C103.37 16.0151 102.974 15.6131 102.974 14.7864V9.96751H105.404Z" fill="#100E0E"/>
<path d="M11.5867 0.282227C9.3841 0.282227 7.23097 0.917559 5.39957 2.10788C3.56818 3.2982 2.14078 4.99005 1.29789 6.96949C0.45499 8.94892 0.23445 11.127 0.664155 13.2284C1.09386 15.3297 2.15451 17.26 3.71198 18.775C5.26945 20.2899 7.25379 21.3217 9.41407 21.7397C11.5743 22.1576 13.8135 21.9431 15.8485 21.1232C17.8834 20.3033 19.6227 18.9148 20.8464 17.1334C22.0701 15.3519 22.7232 13.2575 22.7232 11.115C22.7199 8.24296 21.5456 5.48945 19.4578 3.4586C17.37 1.42774 14.5393 0.285412 11.5867 0.282227V0.282227Z" fill="#100E0E"/>
<path d="M13.1543 17.9887V13.8939H12.6648V17.0872L10.3138 13.893L9.89403 13.8853V17.9907H10.3835V14.7473L12.7237 17.9863L13.1543 17.9887Z" fill="#100E0E"/>
<path d="M17.6166 10.8604H5.55356V11.299H17.6166V10.8604Z" fill="#100E0E"/>
<path d="M10.1017 7.70371L9.8369 8.07675C10.3238 8.46937 10.9399 8.67805 11.5722 8.66448C12.5814 8.66448 13.2863 8.10419 13.2863 7.30178C13.2907 7.09824 13.232 6.89812 13.1178 6.72745C13.0037 6.55678 12.8394 6.42347 12.6463 6.34487C12.3214 6.2 11.9832 6.08541 11.6361 6.00263L11.5836 5.98867C10.9669 5.8202 10.5303 5.67002 10.5303 5.27483C10.5303 4.89216 10.9817 4.59228 11.5584 4.59228C11.9765 4.59237 12.3805 4.7388 12.6968 5.00479L12.9675 4.6149C12.5842 4.30944 12.1014 4.14696 11.6059 4.15666C10.6922 4.15666 10.0294 4.63801 10.0294 5.3013C10.0294 6.02814 10.8664 6.25485 11.5391 6.4368C12.1177 6.59372 12.7705 6.77086 12.7705 7.33163C12.7705 7.86737 12.2978 8.21346 11.5663 8.21346C11.0331 8.20819 10.5172 8.02864 10.1017 7.70371Z" fill="#100E0E"/>
</svg>
