<svg width="119" height="31" viewBox="0 0 119 31" fill="none" xmlns="http://www.w3.org/2000/svg">
<path d="M34.9138 20.4195V8.84487H37.2821L40.7392 16.3507H40.7774L44.2345 8.84487H46.6219V20.4195H44.3872V13.3038H44.3109L40.9302 20.4195H40.5482L37.1675 13.3038H37.1293V20.4195H34.9138ZM55.1595 19.4534C54.3573 20.2709 53.3641 20.6796 52.1418 20.6796C50.9194 20.6796 49.9071 20.2709 49.124 19.4534C48.3218 18.6359 47.9398 17.5026 47.9398 16.0535C47.9398 14.6229 48.3409 13.4896 49.1622 12.6721C49.9835 11.8546 50.9767 11.4273 52.1609 11.4273C53.3451 11.4273 54.3382 11.8361 55.1595 12.6721C55.9808 13.4896 56.3819 14.6229 56.3819 16.0535C56.3437 17.5026 55.9617 18.6359 55.1595 19.4534ZM50.6329 18.0414C50.9958 18.5059 51.4924 18.7288 52.1227 18.7288C52.753 18.7288 53.2496 18.4873 53.6124 18.0228C53.9753 17.5584 54.1472 16.8895 54.1472 16.0349C54.1472 15.1803 53.9562 14.5114 53.5933 14.0469C53.2305 13.5825 52.7339 13.341 52.1036 13.341C51.4733 13.341 50.9767 13.5639 50.6138 14.0284C50.2509 14.4928 50.0599 15.1617 50.0599 16.0349C50.0981 16.9267 50.27 17.5769 50.6329 18.0414ZM59.9536 20.4195L56.3437 11.6689H58.6357L60.8704 17.2983H60.9086L63.1432 11.6689H65.397L61.7872 20.4381H59.9536V20.4195ZM71.8718 17.4097L73.4189 18.7288C72.5021 20.0293 71.2606 20.6796 69.6945 20.6796C68.4339 20.6796 67.4025 20.2523 66.6194 19.4162C65.8172 18.5802 65.4352 17.4469 65.4352 16.0535C65.4352 14.66 65.8363 13.5267 66.6194 12.6907C67.4025 11.8546 68.3957 11.4273 69.599 11.4273C70.8023 11.4273 71.7954 11.8546 72.5594 12.6907C73.3425 13.5267 73.7245 14.66 73.7245 16.0535V16.7037H67.6699C67.7081 17.3726 67.8991 17.8928 68.2429 18.2458C68.5867 18.5988 69.0642 18.7846 69.6563 18.7846C70.172 18.7846 70.5922 18.6545 70.9169 18.413C71.2606 18.1529 71.5662 17.8185 71.8718 17.4097ZM67.6699 15.0874H71.5853C71.528 14.53 71.3371 14.0841 70.9933 13.7683C70.6495 13.4524 70.1911 13.3038 69.599 13.3038C69.0642 13.3038 68.6058 13.471 68.262 13.824C67.9182 14.1584 67.7081 14.5857 67.6699 15.0874ZM76.2266 20.4195L74.2402 11.6503H76.3985L77.5827 17.5026H77.64L79.6455 11.6503H81.6509L83.5036 17.484H83.5418L84.8979 11.6503H87.018L84.8597 20.4195H82.6823L80.6195 14.1213H80.5813L78.3467 20.4195H76.2266ZM94.5051 19.4534C93.7029 20.2709 92.7097 20.6796 91.4873 20.6796C90.2649 20.6796 89.2527 20.2709 88.4696 19.4534C87.6674 18.6359 87.2854 17.5026 87.2854 16.0535C87.2854 14.6229 87.6865 13.4896 88.5078 12.6721C89.3291 11.8546 90.3222 11.4273 91.5064 11.4273C92.6906 11.4273 93.6838 11.8361 94.5051 12.6721C95.3264 13.4896 95.7275 14.6229 95.7275 16.0535C95.6893 17.5026 95.3073 18.6359 94.5051 19.4534ZM89.9784 18.0414C90.3413 18.5059 90.8379 18.7288 91.4682 18.7288C92.0985 18.7288 92.5951 18.4873 92.958 18.0228C93.3209 17.5584 93.4928 16.8895 93.4928 16.0349C93.4928 15.1803 93.3018 14.5114 92.9389 14.0469C92.576 13.5825 92.0794 13.341 91.4491 13.341C90.8188 13.341 90.3222 13.5639 89.9593 14.0284C89.5964 14.4928 89.4054 15.1617 89.4054 16.0349C89.4436 16.9267 89.6346 17.5769 89.9784 18.0414ZM97.0454 20.4195V11.6503H99.1272V12.5792H99.1654C99.3373 12.2448 99.5856 11.9847 99.9294 11.7803C100.254 11.576 100.636 11.4831 101.018 11.4831C101.305 11.4831 101.572 11.5388 101.839 11.6503L101.496 13.7311C101.247 13.6382 101.018 13.6011 100.808 13.6011C99.7766 13.6011 99.2609 14.2699 99.2609 15.6076V20.4195H97.0454ZM111.141 17.5398L113.127 17.0381C113.28 18.2643 113.968 18.8775 115.152 18.8775C115.687 18.8775 116.126 18.7846 116.451 18.6173C116.775 18.4501 116.928 18.2086 116.928 17.8928C116.928 17.6327 116.795 17.4469 116.546 17.3168C116.298 17.1868 115.782 17.0196 114.98 16.7966C114.77 16.7409 114.598 16.7037 114.483 16.6666C113.433 16.3879 112.669 16.0349 112.191 15.6447C111.695 15.2546 111.466 14.7344 111.466 14.0841C111.466 13.3595 111.771 12.7278 112.382 12.2076C112.994 11.6874 113.815 11.4087 114.865 11.4087C116.89 11.4087 118.151 12.2634 118.647 13.9912L116.814 14.53C116.661 14.1027 116.432 13.7868 116.145 13.5453C115.859 13.3038 115.438 13.1737 114.885 13.1737C114.445 13.1737 114.121 13.2481 113.853 13.4153C113.605 13.5825 113.471 13.7683 113.471 13.9912C113.471 14.2327 113.624 14.4185 113.93 14.5672C114.235 14.6972 114.98 14.9387 116.183 15.2732C117.234 15.5518 117.96 15.9048 118.342 16.3136C118.724 16.7409 118.915 17.2797 118.915 17.9485C118.915 18.6545 118.609 19.2862 117.979 19.8436C117.348 20.4009 116.432 20.6796 115.247 20.6796C114.006 20.6796 113.032 20.3823 112.363 19.7692C111.695 19.1561 111.275 18.413 111.141 17.5398ZM107.569 15.8491L111.179 20.4381H108.429L105.258 16.2764V20.4381H103.024V8.36182H105.258V15.3846L108.429 11.6689H111.179L107.569 15.8491Z" fill="#100E0E"/>
<path d="M14.2681 13.5272H0.516296V0.150391L14.2681 13.5272ZM14.2681 0.150391V13.5457H28.0391L14.2681 0.150391Z" fill="#100E0E"/>
<path d="M0.516296 29.1336V15.7383H14.2872L0.516296 29.1336ZM28.0391 15.7569H14.2681V29.1522L28.0391 15.7569Z" fill="#100E0E"/>
<path d="M34.9138 23.6899H35.4868V28.5008H34.9138V23.6899Z" fill="#100E0E"/>
<path d="M36.5735 24.8605H37.1083V25.1948H37.1274C37.3566 24.9348 37.7768 24.749 38.1779 24.749C39.0565 24.749 39.5913 25.2877 39.5913 26.1421V28.5011H39.0374V26.1978C39.0374 25.6035 38.6745 25.2505 38.1015 25.2505C37.5094 25.2505 37.1083 25.6406 37.1083 26.1978V28.4825H36.5544V24.8605H36.5735Z" fill="#100E0E"/>
<path d="M40.2824 27.2566L40.8172 27.1637C40.9318 27.8324 41.2565 28.111 41.9441 28.111C42.4598 28.111 42.7654 27.9067 42.7654 27.5909C42.7654 27.238 42.5362 27.0894 41.734 26.8479C40.779 26.5879 40.4543 26.3093 40.4543 25.8078C40.4543 25.1948 40.9891 24.7676 41.7531 24.7676C42.498 24.7676 43.0519 25.1948 43.2047 25.8449L42.6699 25.9564C42.5362 25.492 42.2306 25.2505 41.7531 25.2505C41.2947 25.2505 40.9891 25.4548 40.9891 25.7706C40.9891 26.0307 41.1992 26.1607 41.9059 26.365C42.9373 26.6622 43.3193 26.978 43.3193 27.5538C43.3193 28.1853 42.7654 28.5939 41.925 28.5939C40.9891 28.5939 40.3779 28.111 40.2824 27.2566Z" fill="#100E0E"/>
<path d="M44.6921 25.3437V27.6655C44.6921 27.907 44.7876 27.9999 45.0932 27.9999H45.3988V28.5014H45.0359C44.3483 28.5014 44.1191 28.2785 44.1191 27.6655V25.3437H43.5461V24.8607H44.1191V24.0435H44.673V24.8607H45.5898V25.3437H44.6921Z" fill="#100E0E"/>
<path d="M45.9352 27.5724C45.9352 26.9594 46.3172 26.6436 47.2531 26.4207C47.9789 26.2536 48.2081 26.105 48.2081 25.8078C48.2081 25.4734 47.9025 25.2505 47.4441 25.2505C46.9475 25.2505 46.6037 25.5477 46.5082 26.0307L45.9543 25.9192C46.088 25.2134 46.661 24.749 47.4441 24.749C48.2845 24.749 48.8002 25.1948 48.8002 25.9378V28.5011H48.2845V28.111H48.2654C48.0553 28.4082 47.6542 28.594 47.1767 28.594C46.4127 28.594 45.9352 28.2039 45.9352 27.5724ZM48.2463 27.2566V26.4393H48.2272C48.1508 26.6251 47.9025 26.7365 47.4059 26.8665C46.7565 27.0337 46.4891 27.2194 46.4891 27.5352C46.4891 27.9067 46.7374 28.0925 47.2149 28.0925C47.807 28.0925 48.2463 27.7395 48.2463 27.2566Z" fill="#100E0E"/>
<path d="M49.6794 24.8605H50.2142V25.1948H50.2333C50.4625 24.9348 50.8827 24.749 51.2838 24.749C52.1624 24.749 52.6972 25.2877 52.6972 26.1421V28.5011H52.1433V26.1978C52.1433 25.6035 51.7804 25.2505 51.2074 25.2505C50.6153 25.2505 50.2142 25.6406 50.2142 26.1978V28.4825H49.6603V24.8605H49.6794Z" fill="#100E0E"/>
<path d="M54.319 25.3437V27.6655C54.319 27.907 54.4145 27.9999 54.7201 27.9999H55.0257V28.5014H54.6628C53.9752 28.5014 53.746 28.2785 53.746 27.6655V25.3437H53.173V24.8607H53.746V24.0435H54.2999V24.8607H55.2167V25.3437H54.319Z" fill="#100E0E"/>
<path d="M57.8328 23.4858H58.3867V25.1947H58.4057C58.6158 24.9347 59.036 24.7489 59.4371 24.7489C60.2966 24.7489 60.8505 25.2876 60.8505 26.1234V28.4824H60.2966V26.1977C60.2966 25.6033 59.9337 25.2504 59.3607 25.2504C58.7686 25.2504 58.3676 25.6405 58.3676 26.1977V28.4824H57.8137V23.4858H57.8328Z" fill="#100E0E"/>
<path d="M61.6148 26.6808C61.6148 25.5292 62.3215 24.749 63.3529 24.749C64.3652 24.749 65.0337 25.4734 65.0337 26.5508V26.8294H62.1878C62.2069 27.5166 62.6462 28.111 63.3529 28.111C63.8877 28.111 64.1742 27.9253 64.4989 27.3866L64.9573 27.6467C64.6326 28.2782 64.0787 28.594 63.372 28.594C62.3024 28.594 61.6148 27.8138 61.6148 26.6808ZM64.4607 26.4022C64.4416 25.7521 64.0023 25.232 63.3529 25.232C62.7035 25.232 62.2069 25.7892 62.1878 26.4022H64.4607Z" fill="#100E0E"/>
<path d="M65.797 23.4858H66.3509V28.501H65.797V23.4858Z" fill="#100E0E"/>
<path d="M67.2898 24.8605H67.8437V25.2505H67.8628C68.1111 24.9533 68.4931 24.7676 68.9515 24.7676C69.9447 24.7676 70.6322 25.5477 70.6322 26.6993C70.6322 27.851 69.9256 28.6311 68.9515 28.6311C68.4931 28.6311 68.0729 28.4454 67.8437 28.1667H67.8246V30.0799H67.2707L67.2898 24.8605ZM70.0784 26.6808C70.0784 25.8263 69.62 25.2505 68.9324 25.2505C68.3021 25.2505 67.8246 25.7335 67.8246 26.3093V27.0151C67.8246 27.6095 68.3212 28.0924 68.9133 28.0924C69.62 28.0924 70.0784 27.5352 70.0784 26.6808Z" fill="#100E0E"/>
<path d="M72.9792 27.5724C72.9792 26.9594 73.3612 26.6436 74.2971 26.4207C75.0229 26.2536 75.2521 26.105 75.2521 25.8078C75.2521 25.4734 74.9465 25.2505 74.4881 25.2505C73.9915 25.2505 73.6477 25.5477 73.5522 26.0307L72.9983 25.9192C73.132 25.2134 73.705 24.749 74.4881 24.749C75.3285 24.749 75.8442 25.1948 75.8442 25.9378V28.5011H75.3285V28.111H75.3094C75.0993 28.4082 74.6982 28.594 74.2207 28.594C73.4567 28.594 72.9792 28.2039 72.9792 27.5724ZM75.2712 27.2566V26.4393H75.2521C75.1757 26.6251 74.9274 26.7365 74.4308 26.8665C73.7814 27.0337 73.514 27.2194 73.514 27.5352C73.514 27.9067 73.7623 28.0925 74.2398 28.0925C74.851 28.0925 75.2712 27.7395 75.2712 27.2566Z" fill="#100E0E"/>
<path d="M77.4474 25.3437V27.6655C77.4474 27.907 77.5429 27.9999 77.8485 27.9999H78.1541V28.5014H77.7912C77.1036 28.5014 76.8744 28.2785 76.8744 27.6655V25.3437H76.3015V24.8607H76.8744V24.0435H77.4283V24.8607H78.3451V25.3437H77.4474Z" fill="#100E0E"/>
<path d="M80.5246 24.8604H81.0594L81.747 27.6837H81.7661L82.7784 24.8604H83.275L84.2873 27.6837H84.3064L84.9939 24.8604H85.5287L84.631 28.501H84.1154L83.0458 25.529H83.0267L81.9571 28.501H81.4414L80.5246 24.8604Z" fill="#100E0E"/>
<path d="M85.8537 26.6803C85.8537 25.5287 86.5604 24.7485 87.6109 24.7485C88.6805 24.7485 89.3872 25.5287 89.3872 26.6803C89.3872 27.8319 88.6805 28.6121 87.6109 28.6121C86.5604 28.5935 85.8537 27.8133 85.8537 26.6803ZM88.8333 26.6803C88.8333 25.8073 88.3558 25.25 87.6109 25.25C86.866 25.25 86.4076 25.8073 86.4076 26.6803C86.4076 27.5533 86.866 28.1105 87.6109 28.1105C88.3558 28.092 88.8333 27.5347 88.8333 26.6803Z" fill="#100E0E"/>
<path d="M90.1706 24.8599H90.6863V25.1571H90.7054C90.8391 24.9342 91.1256 24.7856 91.4885 24.7856C91.6222 24.7856 91.7368 24.8042 91.8705 24.8414L91.7559 25.3986C91.6222 25.3615 91.5076 25.3429 91.393 25.3429C90.9537 25.3429 90.7436 25.6215 90.7436 26.3088V28.5006H90.1897L90.1706 24.8599Z" fill="#100E0E"/>
<path d="M92.4631 23.4858H93.017V26.4764H93.0361L94.6023 24.8604H95.3854L93.9911 26.272L95.4808 28.501H94.8315L93.6091 26.6435H93.59L93.017 27.2193V28.4824H92.4631V23.4858Z" fill="#100E0E"/>
<path d="M96.2629 27.7031H97.1033V28.5004H96.2629V27.7031Z" fill="#100E0E"/>
<path d="M97.3713 23.6902H97.0466V23.5044H97.9061V23.6902H97.5814V24.6004H97.3904V23.6902H97.3713ZM98.0589 23.5044H98.3263L98.6701 24.3218L99.0139 23.5044H99.2812V24.5818H99.0902V23.783L98.7465 24.6004H98.5937L98.2499 23.783V24.6004H98.0589V23.5044Z" fill="#100E0E"/>
</svg>
