<svg width="80" height="14" viewBox="0 0 80 14" fill="none" xmlns="http://www.w3.org/2000/svg">
<path d="M8.33516 7.00292L9.54069 8.86268L11.9656 5.10318V13.4312H14.0545V1.31719H11.9229L8.33516 7.00292Z" fill="#100E0E"/>
<path d="M2.47621 1.3167H0.36348V13.4307H2.4576V5.10269L7.21194 12.4974L8.42469 10.6104L2.47621 1.3167Z" fill="#100E0E"/>
<path d="M26.6161 9.67575L28.5489 13.4307H31.068L24.7481 1.31698H22.4771L22.4751 1.32076L25.6395 7.74493H21.4346L22.5321 5.65065L21.3874 3.37479L16.0622 13.4307H18.4183L20.4088 9.67656L26.6161 9.67575Z" fill="#100E0E"/>
<path d="M45.0162 1.31622H42.9216V7.19892L45.0162 9.24512V1.31622Z" fill="#100E0E"/>
<path d="M34.9057 1.3167H32.7746V13.4307H34.8701V4.37883L43.4555 13.4307H45.0152V11.9586L34.9057 1.3167Z" fill="#100E0E"/>
<path d="M59.6515 4.67857C58.654 3.67124 57.116 3.02616 55.3904 3.02616C52.6366 3.02616 50.3605 4.67019 49.9975 6.80371H47.6912C47.9925 3.49214 51.4769 1.05121 55.4188 1.05121C57.7632 1.05121 59.8695 1.90024 61.2875 3.2663L59.6515 4.67857Z" fill="#100E0E"/>
<path d="M55.1986 11.7389C52.8995 11.7389 50.9423 10.527 50.2123 8.83182H47.8596C48.6376 11.7537 51.6967 13.7026 55.3289 13.7026C56.1722 13.7026 57.1427 13.6216 57.9485 13.427C59.7671 12.9893 61.7532 11.8396 61.7532 10.0247V6.804H55.1744L55.1697 8.83182H59.6507V9.75237C59.6507 10.7688 58.0894 11.3568 57.1338 11.5632C56.6197 11.6743 55.9597 11.7389 55.4269 11.7389H55.1986Z" fill="#100E0E"/>
<path d="M79.0674 7.38554C79.0674 3.77275 75.6961 0.970011 71.5551 0.970011C67.5455 0.970011 64.0228 3.64333 64.0228 7.191C64.0228 10.536 66.7894 13.2161 70.5162 13.6411V11.6173C68.078 11.2266 66.2352 9.4547 66.2352 7.32366C66.2352 4.90622 68.6049 2.94514 71.5268 2.94514C74.45 2.94514 76.8189 4.90622 76.8189 7.32366C76.8189 9.43822 75.005 11.1983 72.5951 11.6076V13.6357C76.1711 13.2129 79.0674 10.6328 79.0674 7.38554Z" fill="#100E0E"/>
</svg>
