<svg width="70" height="18" viewBox="0 0 70 18" fill="none" xmlns="http://www.w3.org/2000/svg">
<path d="M52.7288 0.714355C58.47 0.714355 64.2071 0.714355 69.9677 0.714355C69.9677 6.31123 69.9677 11.9001 69.9677 17.5095C64.2257 17.5095 58.4897 17.5095 52.7288 17.5095C52.7288 11.9146 52.7288 6.32469 52.7288 0.714355Z" fill="#100E0E"/>
<path d="M18.0454 0.71083C18.0454 6.32868 18.0454 11.91 18.0454 17.5039C17.989 17.5137 17.947 17.5274 17.9051 17.5274C14.9951 17.5264 12.0844 17.5629 9.1753 17.5126C5.47692 17.4485 2.27707 15.0694 1.16616 11.6448C-0.370586 6.90738 2.67684 1.8496 7.66811 0.881904C8.27842 0.763564 8.91069 0.706518 9.53335 0.702205C12.2754 0.683189 15.0176 0.693775 17.7597 0.694559C17.8475 0.694624 17.9353 0.704295 18.0454 0.71083Z" fill="#100E0E"/>
<path d="M42.3956 0.73584C47.1599 0.780471 51.0234 4.43032 51.0165 9.14359C51.0095 13.9465 47.0532 17.5076 42.4148 17.5276C37.6578 17.548 33.7817 13.7813 33.7781 9.14575C33.7745 4.51383 37.64 0.741525 42.3956 0.73584Z" fill="#100E0E"/>
<path d="M36.8329 17.5108C31.0941 17.5108 25.3779 17.5108 19.6423 17.5108C19.6423 11.924 19.6423 6.35618 19.6423 0.839355C25.3543 6.37885 31.0851 11.9366 36.8329 17.5108Z" fill="#100E0E"/>
</svg>
