<svg width="65" height="13" viewBox="0 0 65 13" fill="none" xmlns="http://www.w3.org/2000/svg">
<path d="M46.2607 8.82508V7.98579C45.8695 8.31902 45.0551 8.33536 44.3379 8.46038C43.6207 8.60316 42.9706 8.84091 42.9706 9.66529C42.9706 10.5039 43.6365 10.7107 44.3863 10.7107C46.1956 10.7105 46.2607 9.31626 46.2607 8.82508ZM16.3206 7.01914H20.0837C19.8719 5.87754 19.367 5.2758 18.2427 5.2758C16.7762 5.2758 16.3532 6.38452 16.3206 7.01914ZM24.6167 7.01914H28.3806C28.1679 5.87754 27.6638 5.2758 26.5388 5.2758C25.0721 5.2758 24.6493 6.38452 24.6167 7.01914ZM41.0153 6.68678H38.7513C38.6057 5.76694 38.0014 5.27596 37.0409 5.27596C35.5594 5.27596 35.0686 6.73496 35.0686 7.93849C35.0686 9.1103 35.5424 10.5206 36.9908 10.5206C38.067 10.5206 38.6849 9.85503 38.8331 8.85763H40.7998C41.1947 7.74766 42.3605 7.42747 43.5234 7.27219C44.9415 7.06677 46.2607 7.11358 46.2607 6.19439C46.2607 5.22937 45.5765 5.08568 44.7607 5.08568C43.8825 5.08568 43.3118 5.79807 43.2312 6.68487L41.0153 6.68678ZM64.4867 8.44388H58.4111C58.4749 9.8712 59.1925 10.5205 60.4787 10.5205C61.4067 10.5205 62.1564 9.96618 62.3034 9.45991H64.3406C63.6877 11.3909 62.3034 12.2165 60.3981 12.2165C58.3447 12.2165 56.8927 11.1538 56.3426 9.49842C56.2629 11.5474 54.3816 12.2165 52.5012 12.2165C50.6543 12.2165 48.851 11.5819 48.5742 9.68254V10.1723C48.5742 10.9168 48.6561 11.6615 48.8677 11.9939H46.5207C46.4393 11.741 46.3751 11.4718 46.3584 11.2025C45.6266 11.9471 44.5504 12.2165 43.5234 12.2165C42.0633 12.2165 40.8756 11.5653 40.6834 10.1695C40.0422 11.502 38.7245 12.2165 37.0078 12.2165C34.8448 12.2165 33.2856 10.9539 32.8684 9.06354V11.9939H30.5549V8.44388H24.6167C24.6809 9.8712 25.3985 10.5205 26.6865 10.5205C27.6144 10.5205 28.3636 9.96618 28.5098 9.45991H30.5465C29.8947 11.3909 28.5098 12.2165 26.6038 12.2165C24.1407 12.2165 22.5476 10.6902 22.3288 8.44405H16.3206C16.3848 9.87141 17.1031 10.5206 18.3897 10.5206C19.3176 10.5206 20.0675 9.96634 20.2144 9.46008H22.2511C21.5994 11.3911 20.2144 12.2167 18.308 12.2167C15.6529 12.2167 14.0074 10.4416 14.0074 7.90561C14.0074 5.45058 15.7503 3.58008 18.308 3.58008C20.6998 3.58008 22.0605 5.21141 22.3507 7.21451C22.6459 5.10839 24.2926 3.58008 26.6038 3.58008C28.8014 3.58008 30.1269 4.95661 30.5548 6.73304V0.681763H32.8682V6.88374C33.2693 4.92744 34.7437 3.57973 37.0572 3.57973C38.8924 3.57973 40.5872 4.44525 40.9517 6.22361C41.2377 4.06331 43.1061 3.57973 44.8773 3.57973C46.5542 3.57973 48.5742 3.94444 48.5742 5.91042V9.33259H50.74C50.7567 10.3142 51.6041 10.7105 52.5171 10.7105C53.1833 10.7105 54.0312 10.4576 54.0312 9.66512C54.0312 8.98303 53.0702 8.74527 51.4083 8.39779C50.0725 8.11273 48.737 7.65326 48.737 6.21061C48.737 4.11959 50.5943 3.57973 52.4014 3.57973C54.2445 3.57973 55.9373 4.18219 56.1168 6.19406H53.9176C53.8534 5.32381 53.167 5.08534 52.3389 5.08534C51.8162 5.08534 51.0506 5.18224 51.0506 5.84641C51.0506 6.65494 52.353 6.76417 53.6743 7.06644C54.688 7.29169 55.6862 7.61526 56.1202 8.4087C56.1031 8.24376 56.0975 8.07685 56.0975 7.90523C56.0975 5.45021 57.8404 3.57973 60.3981 3.57973C63.2652 3.57973 64.6491 5.92484 64.4867 8.44388ZM58.4111 7.01914H62.1727C61.9606 5.87754 61.4572 5.2758 60.333 5.2758C58.8665 5.2758 58.4436 6.38452 58.4111 7.01914ZM12.6946 1.34524V3.80236H14.388V5.10681H12.6946V9.36356C12.6946 10.1232 12.8895 10.3142 13.6712 10.3142C13.9156 10.3142 14.1435 10.2977 14.388 10.2516V12.01C13.9968 12.0739 13.4925 12.0883 13.0357 12.0883C11.6184 12.0883 10.3812 11.7709 10.3812 10.1395V5.10681H7.15973L7.159 4.05505C7.07691 2.69364 6.08265 2.34546 4.86183 2.34546C4.04689 2.34546 3.10214 2.67728 3.10214 3.62792C3.10214 4.49819 3.65641 4.61092 6.57218 5.34031C7.41893 5.54643 10.026 6.06849 10.026 8.63467C10.026 10.7105 8.34816 12.2622 5.18722 12.2622C2.61332 12.2622 0.20246 11.0258 0.234819 8.23759H2.71058C2.71058 9.74322 3.91601 10.3298 5.28521 10.3298C6.18063 10.3298 7.54909 10.0769 7.54909 8.91951C7.54909 7.69898 5.80622 7.49215 4.09588 7.05044C2.36854 6.60677 0.62512 5.95685 0.62512 3.83436C0.625481 1.52108 2.87382 0.411133 4.97536 0.411133C7.32258 0.411133 9.48707 1.37425 9.62751 3.80236H10.381V1.34524H12.6946Z" fill="#100E0E"/>
</svg>
