<svg width="51" height="30" viewBox="0 0 51 30" fill="none" xmlns="http://www.w3.org/2000/svg">
<path d="M47.9682 14.4888C48.0535 11.8169 45.9214 9.64587 43.2775 9.56237C40.5484 9.47887 38.2456 11.5664 38.1603 14.1548C38.0751 16.9103 40.2072 19.1648 43.0217 19.2483C45.6655 19.2483 47.883 17.1608 47.9682 14.4888ZM50.9533 22.0038H48.0535V20.4173C47.883 20.5008 47.7124 20.5843 47.6271 20.6678C42.7658 23.9243 36.3693 21.1688 35.4312 15.4908C34.7489 11.3994 37.9045 7.30788 42.0835 6.80688C46.9448 6.22238 50.9533 9.72937 50.9533 14.4888V22.0038ZM16.3271 17.9958C16.4977 17.6618 16.583 17.4948 16.6683 17.2443C18.1181 13.8208 19.6533 10.4809 21.1031 7.05738C21.2737 6.72338 21.4443 6.55638 21.7854 6.63988C22.7236 6.63988 23.5764 6.63988 24.5999 6.63988C24.5146 6.80688 24.5146 6.97388 24.4293 7.14088C21.1884 14.4053 18.0328 21.5863 14.792 28.8508C14.6214 29.1848 14.5361 29.2683 14.1097 29.2683C13.1715 29.2683 12.2334 29.2683 11.2952 29.2683C11.3805 29.1013 11.4658 28.9343 11.4658 28.7673C12.4893 26.5963 13.5127 24.3418 14.5361 22.1708C14.7067 21.8368 14.7067 21.5863 14.5361 21.2523C12.5745 16.5763 10.6982 11.9004 8.73666 7.22438C8.73666 7.05738 8.65138 6.97388 8.56609 6.72338C9.58953 6.72338 10.5277 6.72338 11.5511 6.72338C11.7217 6.72338 11.8922 6.97388 11.8922 7.14088C13.0863 10.0634 14.2803 12.9858 15.4743 15.9083C15.7301 16.5763 15.986 17.2443 16.3271 17.9958ZM0.634491 0.961914H3.53422V15.9918C3.53422 18.1628 4.38708 18.9978 6.51923 19.1648C7.11623 19.1648 7.62795 19.1648 8.31023 19.1648V22.0038C6.43394 22.0873 4.47236 22.1708 2.76664 21.1688C1.40207 20.4173 0.634491 19.1648 0.634491 17.6618C0.634491 12.0674 0.634491 6.55638 0.634491 0.961914ZM26.3909 6.72338H29.2906V9.47887C30.8257 7.47488 32.702 6.63988 35.0901 6.72338V9.47887C35.0048 9.47887 34.9195 9.56237 34.7489 9.56237C32.0198 9.39537 30.1435 11.2324 29.4612 13.7373C29.2906 14.4053 29.2053 15.0733 29.2053 15.8248C29.2053 17.8288 29.2053 19.9163 29.2053 21.9203C29.2053 21.9203 29.2053 22.0038 29.2053 22.0873H26.3909V6.72338Z" fill="#100E0E"/>
</svg>
