<svg width="94" height="23" viewBox="0 0 94 23" fill="none" xmlns="http://www.w3.org/2000/svg">
<g clip-path="url(#clip0_228_1784)">
<path d="M3.05176e-05 1.70117H19.2711L12.2728 8.62006H3.05176e-05V1.70117Z" fill="url(#paint0_linear_228_1784)"/>
<path d="M19.2711 1.70117L19.2711 20.9722L12.3522 20.9722L12.3522 8.53458L19.2711 1.70117Z" fill="url(#paint1_linear_228_1784)"/>
<path d="M3.05176e-05 1.70117L19.271 20.9722H3.05176e-05V1.70117Z" fill="#313131"/>
</g>
<path d="M30.6594 6.22836V7.06712H27.8539V16.3369H26.8416V7.06712H24.0216V6.22836H30.6594ZM37.6375 16.3369L35.1357 12.1142H33.2702V16.3369H32.2579V6.22836H35.2948C36.4228 6.22836 37.276 6.4983 37.8544 7.0382C38.4425 7.57809 38.7366 8.2867 38.7366 9.16403C38.7366 9.89675 38.5245 10.5234 38.1003 11.044C37.6857 11.555 37.0687 11.8876 36.2492 12.0419L38.8523 16.3369H37.6375ZM33.2702 11.2899H35.3092C36.0998 11.2899 36.6927 11.097 37.088 10.7114C37.4929 10.3258 37.6954 9.80998 37.6954 9.16403C37.6954 8.49881 37.5026 7.98783 37.1169 7.63112C36.7313 7.26476 36.1239 7.08158 35.2948 7.08158H33.2702V11.2899ZM46.6024 13.9363H42.0036L41.1215 16.3369H40.0513L43.739 6.35851H44.8815L48.5547 16.3369H47.4845L46.6024 13.9363ZM46.2987 13.0975L44.303 7.63112L42.3073 13.0975H46.2987ZM53.1729 6.22836C54.2912 6.22836 55.2505 6.43082 56.0507 6.83574C56.8509 7.24066 57.4631 7.82394 57.8873 8.58557C58.3115 9.34721 58.5236 10.2535 58.5236 11.3043C58.5236 12.3456 58.3115 13.247 57.8873 14.0086C57.4631 14.7606 56.8509 15.3391 56.0507 15.744C55.2505 16.1393 54.2912 16.3369 53.1729 16.3369H50.1793V6.22836H53.1729ZM53.1729 15.4981C54.5804 15.4981 55.6506 15.1318 56.3833 14.3991C57.1257 13.6567 57.4968 12.6251 57.4968 11.3043C57.4968 9.97387 57.1257 8.93747 56.3833 8.19511C55.6506 7.44312 54.5804 7.06712 53.1729 7.06712H51.1916V15.4981H53.1729ZM61.4022 7.05266V10.8271H65.2345V11.6659H61.4022V15.4981H65.6683V16.3369H60.3899V6.21389H65.6683V7.05266H61.4022ZM73.3897 6.24282V13.3289C73.3897 14.3123 73.1053 15.0788 72.5365 15.6283C71.9677 16.1682 71.2061 16.4381 70.2516 16.4381C69.2875 16.4381 68.5066 16.1586 67.9089 15.5994C67.3208 15.0402 67.0267 14.2593 67.0267 13.2566H69.0513C69.0609 13.6905 69.1622 14.0279 69.355 14.2689C69.5575 14.51 69.8467 14.6305 70.2227 14.6305C70.589 14.6305 70.8686 14.5148 71.0615 14.2834C71.2543 14.052 71.3507 13.7339 71.3507 13.3289V6.24282H73.3897ZM77.7761 6.24282V16.3369H75.7515V6.24282H77.7761ZM88.4099 16.3369H86.3853L81.801 9.40988V16.3369H79.7764V6.22836H81.801L86.3853 13.1699V6.22836H88.4099V16.3369ZM92.4353 6.24282V16.3369H90.4107V6.24282H92.4353Z" fill="black"/>
<defs>
<linearGradient id="paint0_linear_228_1784" x1="-8.60988" y1="5.48145" x2="24.6521" y2="5.16062" gradientUnits="userSpaceOnUse">
<stop stop-color="#5B5B5B"/>
<stop offset="1" stop-color="#989898"/>
</linearGradient>
<linearGradient id="paint1_linear_228_1784" x1="15.8117" y1="20.3939" x2="15.8117" y2="9.71772" gradientUnits="userSpaceOnUse">
<stop stop-color="#434343"/>
<stop offset="1" stop-color="#777777"/>
</linearGradient>
<clipPath id="clip0_228_1784">
<rect x="3.05176e-05" y="1.70117" width="19.2711" height="19.2711" rx="2.26111" fill="white"/>
</clipPath>
</defs>
</svg>
