<svg width="98" height="38" viewBox="0 0 98 38" fill="none" xmlns="http://www.w3.org/2000/svg">
<path d="M0.648926 21.092C3.20005 14.0237 11.3887 9.42602 18.5372 11.057C19.2043 11.2093 19.9823 11.2984 19.9027 12.2678C13.8269 11.5577 8.89417 13.7886 4.66198 17.668C1.53443 20.5348 0.986984 23.7472 3.16538 27.3133C6.67758 33.0629 12.0022 36.1526 18.9047 36.1215C24.0376 36.0983 27.6842 33.5427 29.6488 28.8737C31.536 24.3888 31.792 19.6742 31.6761 14.9079C31.6024 11.8828 31.4778 8.85451 31.5504 5.83149C31.6051 3.5523 32.3457 1.51789 34.7795 0.539551C35.2311 0.539551 35.6824 0.539551 36.1339 0.539551C37.322 1.06047 38.4548 1.6333 38.7457 3.22425C38.0005 3.00028 37.3732 2.80688 36.7428 2.62349C35.0889 2.14262 33.9108 2.61875 33.5083 4.23289C33.1307 5.74769 32.9549 7.33996 32.9286 8.90167C32.8558 13.2358 33.0102 17.5747 32.8753 21.906C32.7767 25.0673 32.0743 28.1475 30.7323 31.0717C28.9811 34.8881 26.0147 37.0432 21.7427 37.5032C21.4794 37.5317 21.224 37.6274 20.9648 37.6916C20.2423 37.6916 19.5202 37.6916 18.7977 37.6916C18.4123 37.6102 18.0301 37.5088 17.6411 37.45C10.8169 36.4153 5.35949 33.3957 2.15582 27.2145C1.5011 25.9511 1.14355 24.5419 0.648926 23.1997C0.648926 22.4972 0.648926 21.7948 0.648926 21.092Z" fill="#100E0E"/>
<path d="M97.3501 17.93C97.0256 19.3478 95.9483 19.6882 94.7001 19.4817C93.6057 19.3006 92.4959 18.9939 91.5002 18.5268C90.6599 18.1323 89.9974 18.1134 89.26 18.6111C88.854 18.8854 88.4263 19.1315 87.9969 19.3707C86.0667 20.4463 84.4728 19.9285 83.7439 17.863C83.4145 16.9298 83.2533 15.8953 83.252 14.9067C83.2493 12.8496 83.4383 10.7931 83.4838 8.73496C83.5239 6.92399 83.3823 5.13305 82.0942 3.45752C83.4649 3.61825 84.2453 4.35075 84.3544 5.4279C84.5381 7.24282 84.472 9.08197 84.5061 10.9109C84.5419 12.827 84.4173 14.7618 84.6538 16.6539C84.8361 18.1115 85.5347 18.5096 86.8197 17.7648C88.9962 16.5029 90.9937 16.686 93.1916 17.5606C94.5733 18.1105 96.0236 17.8488 97.3501 17.1395C97.3501 17.403 97.3501 17.6665 97.3501 17.93Z" fill="#100E0E"/>
<path d="M37.4722 15.9826C37.5177 15.3001 37.6648 14.6322 37.8623 14.0694C38.6123 11.9301 40.3606 11.4727 42.1687 12.8966C43.9996 14.3386 44.3782 17.392 42.9136 18.9039C41.997 19.8503 40.3216 20.2688 39.1869 19.726C37.7623 19.0443 37.3725 17.4784 37.4722 15.9826ZM42.0834 15.8126C42.0966 14.565 41.4915 13.5147 40.6585 13.4072C39.8971 13.3092 39.5731 13.813 39.3058 14.4143C38.9618 15.1881 38.5747 15.9826 38.5755 16.8447C38.576 17.4631 38.812 18.2657 39.5165 18.4288C40.505 18.6575 41.634 17.759 41.9794 16.4553C42.0457 16.2039 42.0633 15.9407 42.0834 15.8126Z" fill="#100E0E"/>
<path d="M79.3634 18.7996C79.1367 18.0052 78.6827 17.2727 78.447 16.4796C78.3308 16.0885 78.3479 15.5579 78.5326 15.2029C79.2391 13.846 79.1266 12.4642 77.8982 11.5299C77.6062 11.3078 77.263 11.1636 76.9212 11.0308C76.5639 10.892 76.0598 10.6728 75.7637 11.0453C75.5416 11.3252 75.463 11.7828 75.3923 12.1227C75.3219 12.4611 75.2163 12.8294 75.3387 13.1672C75.7231 14.2262 75.1651 14.7882 74.1967 14.9276C72.333 15.1961 70.4539 15.3676 68.5784 15.5521C67.7918 15.6295 67.1002 15.5194 66.6137 14.7413C66.1833 14.0528 65.6123 14.0352 64.9351 14.6212C64.3023 15.1687 63.5233 15.5565 62.7017 16.0833C62.3793 14.9771 62.1895 14.1693 61.9078 13.3928C61.3931 11.9749 60.2741 11.1286 59.1218 11.3671C57.7863 11.6435 57.5044 12.7823 57.2936 13.8692C57.1869 14.4196 57.1533 15.0343 57.2947 15.5679C57.5209 16.4219 57.9202 17.2326 58.2474 18.065C55.7851 18.4507 54.8991 17.7103 55.1271 15.3376C55.2442 14.1205 55.5952 12.9264 55.7726 11.7128C55.8861 10.9368 56.0533 10.0976 55.8569 9.37402C55.7269 8.895 54.9952 8.57064 54.5328 8.17725C54.259 8.54534 53.8757 8.87787 53.7348 9.28917C53.4707 10.0607 53.3467 10.8778 53.1687 11.658C49.3499 11.2727 46.8946 13.4031 47.0845 16.7965C47.2251 19.3134 48.856 20.3257 51.233 19.3068C52.1678 18.906 53.0281 18.3411 53.987 17.8155C55.7548 19.858 58.0082 19.8003 60.2738 18.9234C61.979 18.2634 63.5577 17.2972 65.206 16.493C65.5353 16.3323 66.0432 16.0933 66.2678 16.2221C67.8812 17.1478 69.5833 16.8419 71.2858 16.7101C72.3512 16.6276 73.4203 16.5886 74.5927 16.5246C74.493 16.9082 74.4321 17.1104 74.3882 17.3161C73.9193 19.5215 75.6199 21.2263 77.905 20.844C79.0841 20.6464 79.6741 19.8886 79.3634 18.7996ZM53.0259 15.2991C52.8101 16.3035 52.0288 17.1599 51.1306 17.6597C50.6758 17.9129 50.1644 18.0882 49.6389 18.1195C49.2063 18.1453 48.7558 18.0194 48.479 17.6782C48.401 17.582 48.3446 17.4816 48.3064 17.3786C48.1244 16.889 48.3449 16.3362 48.5397 15.8588C48.7274 15.3979 48.9807 14.9568 49.3344 14.5964C49.9691 13.9498 50.8608 13.6162 51.7767 13.665C52.9195 13.7258 53.2483 14.2641 53.0259 15.2991ZM60.847 15.4822C60.5875 15.8698 60.1408 16.3536 59.6562 16.4638C59.4829 16.503 59.2613 16.3916 59.122 16.3059C58.8149 16.1175 58.5294 15.785 58.447 15.4356C58.2401 14.5579 59.3528 13.2555 59.9699 13.5042C60.2462 13.6157 60.4263 13.8694 60.5935 14.0979C60.8475 14.4452 61.0553 14.682 61.0423 14.9819C61.0355 15.1271 60.9773 15.2873 60.847 15.4822ZM76.9669 11.9114C77.4085 11.9114 77.7663 12.3538 77.7663 12.8995C77.7663 13.4452 77.4085 13.8873 76.9669 13.8873C76.5254 13.8873 76.1676 13.4449 76.1676 12.8995C76.1676 12.3536 76.5254 11.9114 76.9669 11.9114ZM76.9669 19.4291C76.3965 19.4291 75.9341 18.8576 75.9341 18.1527C75.9341 17.4479 76.3965 16.8764 76.9669 16.8764C77.5374 16.8764 77.9998 17.4479 77.9998 18.1527C77.9998 18.8576 77.5374 19.4291 76.9669 19.4291Z" fill="#100E0E"/>
<path d="M96.2208 7.45611C96.5547 7.45611 96.8254 6.86268 96.8254 6.13064C96.8254 5.39861 96.5547 4.80518 96.2208 4.80518C95.8869 4.80518 95.6162 5.39861 95.6162 6.13064C95.6162 6.86268 95.8869 7.45611 96.2208 7.45611Z" fill="#100E0E"/>
</svg>
