<svg width="72" height="17" viewBox="0 0 72 17" fill="none" xmlns="http://www.w3.org/2000/svg">
<path d="M17.6686 0.805614C19.214 0.805614 20.7593 0.805614 22.4375 0.805614C22.4375 1.01474 22.4375 1.28757 22.4375 1.56041C22.4375 4.42886 22.4375 7.29747 22.4377 10.1659C22.4377 10.4006 22.4356 10.6354 22.4396 10.87C22.484 13.5138 24.4915 14.6203 26.8815 13.3164C27.9417 12.738 28.6074 12.029 28.5319 10.6687C28.4022 8.32854 28.4981 5.97665 28.4952 3.62961C28.493 1.81696 28.3078 1.60377 26.5035 1.23514C26.3514 1.20399 26.2209 1.07265 26.0805 0.98797C26.2324 0.893425 26.3831 0.718582 26.5363 0.716547C28.0862 0.696198 29.6365 0.704179 31.2809 0.704179C31.2809 1.04651 31.2809 1.32561 31.2809 1.60455C31.2809 4.94244 31.2805 8.28033 31.2811 11.6182C31.2816 13.4154 31.3431 13.4869 33.1458 13.8645C33.2138 13.8787 33.2698 13.9468 33.5362 14.1327C31.8686 14.68 30.3468 15.1793 28.7096 15.7165C28.7096 14.7941 28.7096 13.9562 28.7096 12.9955C27.9669 13.6453 27.3762 14.2395 26.7066 14.7324C25.2044 15.838 23.5566 16.1329 21.8083 15.3189C20.3837 14.6557 19.716 13.4831 19.6988 11.984C19.6669 9.19417 19.6846 6.40366 19.6766 3.61348C19.6756 3.24907 19.6756 2.8806 19.6219 2.52136C19.5158 1.8107 19.1456 1.31919 18.3599 1.2032C18.1139 1.16689 17.8757 1.08017 17.634 1.01662C17.6458 0.946335 17.6572 0.876053 17.6686 0.805614Z" fill="#100E0E"/>
<path d="M34.8534 8.17373C34.8303 4.60527 37.0943 1.60267 40.4249 0.835824C45.1545 -0.253169 49.403 3.00082 49.4709 7.73341C49.5021 9.90701 48.9149 11.8571 47.4299 13.5022C45.5409 15.5949 43.1246 16.1929 40.4316 15.5303C37.5811 14.829 35.8887 12.906 35.1508 10.1809C34.9751 9.53149 34.9486 8.84369 34.8534 8.17373ZM37.9087 7.19525C37.9 7.42207 37.8978 7.64794 37.9029 7.87162C37.9357 9.30358 38.2737 10.7301 38.9014 12.0263C38.9265 12.0781 38.9521 12.1298 38.9782 12.1813C39.3636 12.9423 39.8674 13.6771 40.5629 14.2022C41.3267 14.7789 42.2753 14.9625 43.2258 14.8495C44.5858 14.6877 45.3999 13.8294 45.8289 12.6831C47.1143 9.24895 46.7371 5.9322 44.5732 2.95574C43.3021 1.20728 40.6772 1.02993 39.2088 2.64925C38.583 3.3394 38.2973 4.25025 38.1391 5.14061C38.0202 5.80994 37.9349 6.50698 37.9087 7.19525Z" fill="#100E0E"/>
<path d="M7.67176 1.00445C7.49684 1.08647 7.32996 1.19808 7.14555 1.24582C6.05724 1.52742 5.83694 1.87054 6.26901 2.93715C7.02373 4.80051 7.83735 6.64116 8.63181 8.48918C9.02881 9.41256 9.43851 10.3309 9.93044 11.4523C11.1013 8.50969 12.2205 5.78791 13.2609 3.03795C13.6971 1.88494 13.4239 1.53039 12.1891 1.20434C12.0585 1.1699 11.9471 1.06659 11.8555 0.844159C13.3618 0.844159 14.8678 0.844159 16.4225 0.844159C16.3898 0.951071 16.3789 1.11371 16.3314 1.12451C15.1932 1.38326 14.8451 2.31447 14.4757 3.20404C12.8323 7.15976 11.2059 11.1222 9.56886 15.0804C9.46378 15.3343 9.32023 15.573 9.07756 16.0476C8.74993 15.4766 8.48747 15.1069 8.31287 14.7015C6.68001 10.9107 5.05712 7.11593 3.44324 3.31752C3.01937 2.31994 2.507 1.43538 1.28851 1.21013C1.19614 1.19307 1.13016 1.04139 0.947998 0.833984C3.24901 0.833984 5.41227 0.833984 7.57537 0.833984C7.60739 0.890649 7.63958 0.94763 7.67176 1.00445Z" fill="#100E0E"/>
<path d="M59.2645 15.6329C59.0577 15.652 58.8511 15.6872 58.6443 15.6875C56.3937 15.6914 54.143 15.6969 51.8925 15.6792C51.6722 15.6775 51.4534 15.5247 51.2337 15.442C51.4329 15.3351 51.6201 15.1741 51.8332 15.1299C53.3223 14.8203 53.6496 14.4539 53.6553 12.948C53.6646 10.4722 53.6582 7.99613 53.6567 5.52027C53.6566 5.31192 53.6471 5.10342 53.6366 4.89524C53.5441 3.06663 53.1019 2.68641 51.1409 2.89992C51.2807 2.67671 51.3393 2.44519 51.4674 2.3998C53.0668 1.83394 54.6761 1.295 56.3687 0.720215C56.3687 1.712 56.3687 2.63445 56.3687 3.71452C57.0568 2.9663 57.6084 2.31668 58.2153 1.72029C58.8546 1.09182 59.6143 0.67576 60.5758 0.753243C61.7543 0.848414 62.4881 1.88575 62.1519 2.98821C61.8508 3.97593 60.8055 4.29776 59.9117 3.67789C58.4805 2.68563 57.799 2.80241 56.9091 4.30152C56.6542 4.73104 56.5047 5.27968 56.4958 5.77698C56.4537 8.12183 56.4633 10.4679 56.482 12.8134C56.4949 14.4243 57.0587 14.9856 58.7236 15.1656C58.9328 15.1882 59.1316 15.3016 59.3353 15.373C59.3115 15.4596 59.288 15.5463 59.2645 15.6329Z" fill="#100E0E"/>
<path d="M63.2052 2.64709C63.3606 2.4857 63.4868 2.23713 63.6763 2.17687C65.2234 1.68489 66.7824 1.22797 68.447 0.727539C68.4653 1.05673 68.493 1.32393 68.4932 1.59113C68.4961 5.05768 68.4948 8.52409 68.4958 11.9906C68.4959 12.3294 68.494 12.6687 68.5117 13.0069C68.5971 14.6345 68.8493 14.8993 70.5103 15.1764C70.6978 15.2077 70.8711 15.3196 71.051 15.3943C71.0315 15.4578 71.0121 15.5214 70.9924 15.5849C68.3744 15.5849 65.7566 15.5849 63.1385 15.5849C63.1178 15.5236 63.0972 15.4621 63.0764 15.4007C63.2752 15.3184 63.4665 15.1955 63.6736 15.1601C65.4822 14.8519 65.7108 14.6041 65.7152 12.809C65.7219 10.0202 65.7192 7.23129 65.7162 4.44251C65.7144 2.78234 65.3842 2.51263 63.7347 2.79783C63.6102 2.81943 63.4811 2.81583 63.3542 2.82382C63.3046 2.76496 63.2549 2.70594 63.2052 2.64709Z" fill="#100E0E"/>
</svg>
