<svg width="55" height="29" viewBox="0 0 55 29" fill="none" xmlns="http://www.w3.org/2000/svg">
<path fill-rule="evenodd" clip-rule="evenodd" d="M46.6196 7.63287C45.804 7.63287 45.1242 6.96925 45.1242 6.17287C45.1242 5.37653 45.804 4.71289 46.6196 4.71289C47.4354 4.71289 48.1151 5.37653 48.1151 6.17287C48.1151 6.96925 47.4354 7.63287 46.6196 7.63287Z" fill="#100E0E"/>
<path fill-rule="evenodd" clip-rule="evenodd" d="M22.8747 11.129C21.6058 11.129 20.4276 13.4298 20.2916 16.3059C20.1557 18.4298 20.6089 20.3767 21.4246 21.2616C21.6965 21.5714 22.0137 21.7041 22.3309 21.7483H22.3762C23.6451 21.7483 24.8233 19.4474 24.9592 16.5714C25.0952 14.4475 24.642 12.5006 23.781 11.6157C23.5091 11.306 23.1919 11.1732 22.8747 11.129C22.92 11.129 22.8747 11.129 22.8747 11.129ZM41.5902 27.589L41.6808 27.5005C43.6294 25.7306 45.0795 24.0049 46.439 21.9253C47.8891 19.2705 48.3876 16.7926 48.0251 14.3148C47.9345 13.9166 47.7985 13.9166 47.7532 13.9166C47.5719 13.9166 47.3 14.0935 47.0281 14.3148C43.9013 17.3679 42.2699 20.5536 41.8621 24.2704V24.3589L39.9135 24.8014V24.6687C39.8229 19.9785 40.1401 15.3767 40.9558 10.5538H37.3305L37.2852 13.7395L35.3366 13.6953L35.2006 11.6157C34.9741 11.1732 34.6569 10.9962 34.2943 10.9962C34.1131 10.9962 33.8865 11.0405 33.6599 11.1732C32.527 11.7927 31.9379 13.2086 31.8019 15.9077C31.666 18.1201 31.7113 19.713 32.4817 20.5094C32.8442 20.8634 33.2974 21.0404 33.8865 21.0404C34.1131 21.0404 34.3396 21.0404 34.5662 20.9961C35.5178 20.5536 36.2429 19.6687 36.832 18.2085L36.8773 18.1201L37.8743 18.0316L37.829 18.1643C37.2398 21.3058 35.7444 22.766 33.0255 22.766C32.7083 22.766 32.391 22.766 32.0285 22.7218C29.5361 22.1465 28.7204 19.5802 29.5814 15.2882C30.0346 13.1201 30.8956 11.6157 32.2551 10.598H25.9562C26.8625 11.7927 27.3157 13.4298 27.3157 15.4652C27.0438 19.6687 25.5936 21.9696 22.8294 22.7218C22.4215 22.8103 22.0137 22.8987 21.5605 22.8987C21.0167 22.8987 20.3823 22.8103 19.7932 22.6333C18.7056 22.1465 18.0259 21.2616 17.8446 20.1112C17.4368 17.3679 17.6633 16.0847 18.5697 13.4741C19.1134 11.9254 20.1104 11.0847 21.0167 10.5538H14.0381L14.1287 13.7395H12.7692V13.6068C12.8599 12.8546 12.7239 12.2351 12.316 11.7927C11.9535 11.3944 11.3644 11.129 10.6847 11.129C10.1408 11.129 9.64239 11.306 9.3705 11.5272C8.73607 11.8369 8.37354 12.6776 8.41886 13.5183C8.50951 14.6688 9.32518 15.5537 10.6847 15.9962C12.9051 16.8369 14.4459 18.2085 15.3522 20.1997C16.2132 23.0315 15.035 25.4651 12.2707 26.3943C11.7722 26.4828 11.2738 26.5271 10.8206 26.5271C10.3675 26.5271 9.86896 26.4828 9.41582 26.3943C8.37354 26.2173 7.4219 25.8633 6.5609 25.3766L6.51558 25.3324V20.9519H7.87508V21.0846C7.69379 23.474 8.32821 24.8014 9.77836 25.1554C10.0503 25.1996 10.3221 25.2439 10.594 25.2439C11.7269 25.2439 12.6786 24.8456 13.2677 24.1377C13.7208 23.5625 13.8568 22.8103 13.6302 22.0138C13.2677 20.7749 12.1801 19.7572 10.0955 18.828C8.011 17.9873 6.74214 16.6157 6.47025 14.89C6.33433 12.9873 6.87811 11.66 8.23757 10.6865H0.987022L2.98093 8.87236H41.3183C41.5902 6.306 42.1793 3.51844 43.2216 0.332635L43.2669 0.244141H46.4844V1.35032H46.3937C44.717 2.45651 43.72 4.97861 43.4028 8.87236H54.8677L52.9194 10.598H43.1763L42.6325 18.5183C44.1279 15.775 45.8046 13.6068 47.6172 12.0582L47.6626 12.0139H50.3815V12.1024C51.3782 19.0492 49.158 22.3678 46.575 24.9341L42.6325 28.6066L41.5902 27.589Z" fill="#100E0E"/>
<path fill-rule="evenodd" clip-rule="evenodd" d="M47.9806 0.155369C47.6181 0.155369 47.3462 0.420792 47.3462 0.774691C47.3462 1.12859 47.6181 1.39401 47.9806 1.39401C48.3431 1.39401 48.615 1.12859 48.615 0.774691C48.615 0.420792 48.3431 0.155369 47.9806 0.155369ZM47.9806 1.48249C47.5728 1.48249 47.2556 1.17283 47.2556 0.774691C47.2556 0.376555 47.5728 0.0668945 47.9806 0.0668945C48.3885 0.0668945 48.7057 0.376555 48.7057 0.774691C48.751 1.17283 48.3885 1.48249 47.9806 1.48249Z" fill="#100E0E"/>
<path fill-rule="evenodd" clip-rule="evenodd" d="M47.7972 0.686055H47.9331C48.0237 0.686055 48.0691 0.686055 48.0691 0.686055C48.0691 0.686055 48.1144 0.686055 48.1144 0.641862V0.597668C48.1144 0.553479 48.1144 0.553479 48.1144 0.553479L48.0691 0.509285C48.0691 0.509285 48.0237 0.509285 47.9331 0.509285H47.7972V0.686055ZM47.6159 1.17216V0.33252H47.9784C48.0691 0.33252 48.1144 0.33252 48.1597 0.33252C48.205 0.33252 48.2503 0.376711 48.2503 0.420903C48.2956 0.465095 48.2956 0.509285 48.2956 0.553479C48.2956 0.597668 48.2956 0.641862 48.2503 0.686055C48.205 0.730244 48.1597 0.730244 48.0691 0.774438C48.1144 0.774438 48.1144 0.818627 48.1597 0.862821C48.205 0.90701 48.205 0.951203 48.2503 0.995397L48.341 1.17216H48.1597L48.0237 0.995397C47.9784 0.951203 47.9331 0.90701 47.9331 0.862821L47.8878 0.818627C47.8878 0.818627 47.8425 0.818627 47.7972 0.818627H47.7518V1.17216H47.6159Z" fill="#100E0E"/>
</svg>
