<svg width="73" height="33" viewBox="0 0 73 33" fill="none" xmlns="http://www.w3.org/2000/svg">
<path d="M68.2797 15.015H69.4163C69.7288 15.015 69.9703 14.9156 70.1408 14.7025C70.3113 14.4894 70.3965 14.191 70.3965 13.8075C70.3965 13.3955 70.3113 13.0687 70.1266 12.8414C69.9561 12.5999 69.7146 12.472 69.4163 12.472H68.2655V15.015H68.2797ZM68.2797 16.3931V19.2771H66.6317V11.094H69.4163C70.226 11.094 70.8654 11.3497 71.3484 11.8469C71.8314 12.3442 72.0729 12.9977 72.0729 13.8075C72.0729 14.603 71.8314 15.2424 71.3626 15.7112C70.8796 16.18 70.2261 16.4073 69.3878 16.4073H68.2797V16.3931ZM62.7675 17.899H65.6657V19.2771H61.1195V11.094H62.7675V17.899ZM57.2552 17.899H60.1534V19.2771H55.6072V11.094H57.2552V17.899ZM51.5725 19.2771H49.9245V11.094H51.5725V19.2771ZM48.518 19.2771H46.87L44.4549 13.9069V19.2771H42.8069V11.094H44.4549L46.8842 16.4641V11.094H48.5322V19.2771H48.518ZM41.4714 19.2771H39.8234L37.4083 13.9069V19.2771H35.7603V11.094H37.4083L39.8376 16.4641V11.094H41.4856V19.2771H41.4714ZM34.4959 11.094V16.7625C34.4817 17.6149 34.2543 18.2684 33.7997 18.723C33.3451 19.1776 32.6774 19.3907 31.8108 19.3907C30.9299 19.3907 30.2622 19.1634 29.7934 18.7088C29.3388 18.2542 29.0973 17.5865 29.0973 16.7199V11.094H30.7595V16.7199C30.7595 17.1887 30.8305 17.5154 30.9868 17.7143C31.1431 17.9132 31.413 18.0127 31.7966 18.0127C32.1944 18.0127 32.4643 17.9132 32.6064 17.7143C32.7484 17.5154 32.8337 17.1887 32.8337 16.7483V11.094H34.4959ZM23.1304 13.1113C23.1304 13.3813 23.2583 13.708 23.514 14.0916L23.7839 13.8927C23.9402 13.779 24.0538 13.6512 24.1249 13.5233C24.1959 13.3955 24.2243 13.225 24.2243 12.9977C24.2243 12.7988 24.1675 12.6425 24.068 12.5146C23.9686 12.3868 23.8407 12.3157 23.6845 12.3157C23.514 12.3157 23.3861 12.3868 23.2867 12.5431C23.1872 12.6709 23.1304 12.8698 23.1304 13.1113ZM23.514 18.0695C23.8123 18.0695 24.0823 17.9701 24.3522 17.7712L23.0594 15.9385L23.0309 15.9669C22.8463 16.251 22.7468 16.592 22.7468 16.9614C22.7468 17.2739 22.8178 17.5439 22.9599 17.7428C23.1162 17.9701 23.3009 18.0695 23.514 18.0695ZM21.1414 17.075C21.1414 16.6915 21.2267 16.3363 21.3972 16.0237C21.5676 15.7112 21.8944 15.356 22.3774 14.9582C22.1643 14.6315 22.0081 14.3189 21.8944 14.0348C21.7807 13.7364 21.7097 13.4381 21.7097 13.1255C21.7097 12.4862 21.8944 11.9606 22.2496 11.5628C22.6047 11.165 23.0878 10.9661 23.6845 10.9661C24.2243 10.9661 24.6647 11.1508 25.0057 11.5202C25.3609 11.8895 25.5313 12.3442 25.5313 12.8698C25.5313 13.5802 25.233 14.1768 24.6363 14.6457L24.1817 15.015L25.233 16.4783C25.3609 16.0948 25.4319 15.6828 25.4319 15.2281H26.7816C26.7816 16.2795 26.5684 17.1319 26.1565 17.7712L27.2078 19.2487H25.4035L25.1051 18.8225C24.6221 19.1776 24.068 19.3623 23.4287 19.3623C22.7326 19.3623 22.1927 19.1492 21.7665 18.723C21.3403 18.2968 21.1414 17.7712 21.1414 17.075ZM16.4248 17.0324L17.8028 11.094H19.6497L17.2914 19.2771H15.5724L13.214 11.094H15.0467L16.4248 17.0324ZM12.3332 15.7396H9.76176V17.9132H12.802V19.2913H8.09956V11.094H12.7878V12.472H9.76176V14.4041H12.3332V15.7396ZM3.25503 12.472V17.9132H3.75227C4.30634 17.9132 4.68992 17.7712 4.91723 17.487C5.14454 17.1887 5.2582 16.6914 5.2724 15.9811V14.5604C5.2724 13.7933 5.15875 13.2676 4.94565 12.9693C4.73255 12.6709 4.36317 12.5004 3.85172 12.4862H3.25503V12.472ZM1.59283 19.2771V11.094H3.75227C4.70413 11.094 5.4713 11.3923 6.03957 12.0032C6.60785 12.6141 6.90619 13.4381 6.90619 14.5036V15.8248C6.90619 16.9046 6.62205 17.7428 6.05378 18.3536C5.48551 18.9645 4.70413 19.2629 3.70965 19.2629H1.59283V19.2771ZM40.1644 8.4799H38.5164V0.29676H40.1644V8.4799ZM34.4532 6.23522L35.8313 0.29676H37.6782L35.3199 8.4799H33.6008L31.2425 0.29676H33.0752L34.4532 6.23522ZM30.4469 8.4799H28.7989V4.97081H26.3553V8.4799H24.7074V0.29676H26.3553V3.60695H28.7989V0.29676H30.4469V8.4799ZM23.5424 7.55645C23.2298 7.89742 22.8321 8.16735 22.3632 8.33783C21.9086 8.50831 21.3972 8.59355 20.8431 8.59355C19.9054 8.59355 19.1667 8.30942 18.6552 7.72694C18.1296 7.14446 17.8597 6.29205 17.8455 5.18391V3.7064C17.8455 2.58406 18.087 1.71744 18.5842 1.10655C19.0814 0.495656 19.7918 0.197312 20.7436 0.197312C21.6387 0.197312 22.3064 0.410415 22.7468 0.850827C23.2014 1.29124 23.4572 1.97317 23.5282 2.91082H21.9228C21.8802 2.38516 21.7665 2.02999 21.5961 1.84531C21.4256 1.66062 21.1556 1.56117 20.7863 1.56117C20.3459 1.56117 20.0191 1.71744 19.8202 2.0442C19.6213 2.37096 19.5077 2.8824 19.5077 3.60695V5.08446C19.5077 5.82322 19.6213 6.37729 19.8344 6.71825C20.0617 7.05921 20.4311 7.2297 20.9425 7.2297C21.2693 7.2297 21.5392 7.15866 21.7381 7.0308L21.8802 6.93135V5.42543H20.7152V4.17523H23.5282V7.55645H23.5424ZM16.6521 8.4799H15.0041L12.5889 3.10971V8.4799H10.9409V0.29676H12.5889L15.0183 5.66694V0.29676H16.6663V8.4799H16.6521ZM9.53445 8.4799H7.88646V0.29676H9.53445V8.4799ZM5.0593 6.33467C5.0593 6.00791 4.97406 5.75218 4.80358 5.5817C4.6331 5.41122 4.32055 5.22653 3.88013 5.04184C3.05614 4.72929 2.47366 4.37412 2.10428 3.94792C1.74911 3.52171 1.56442 3.03868 1.56442 2.47041C1.56442 1.77427 1.80594 1.23441 2.28897 0.808206C2.78621 0.382001 3.3971 0.183105 4.15006 0.183105C4.6473 0.183105 5.10192 0.29676 5.49971 0.509863C5.8975 0.722965 6.19585 1.02131 6.40895 1.40489C6.62205 1.78848 6.73571 2.22889 6.73571 2.72613H5.07351C5.07351 2.34254 4.98827 2.05841 4.83199 1.85951C4.67572 1.66062 4.4342 1.56117 4.13586 1.56117C3.85172 1.56117 3.62441 1.64641 3.46814 1.81689C3.31186 1.98737 3.22662 2.21468 3.22662 2.49882C3.22662 2.72613 3.31186 2.92502 3.49655 3.10971C3.68124 3.2944 3.99379 3.47909 4.44841 3.67799C5.24399 3.96212 5.82647 4.3173 6.18164 4.7435C6.55102 5.1697 6.7215 5.69536 6.7215 6.34887C6.7215 7.05921 6.49419 7.61328 6.03957 8.02528C5.58495 8.42307 4.97406 8.62197 4.19269 8.62197C3.66703 8.62197 3.184 8.50831 2.74359 8.29521C2.30318 8.08211 1.96221 7.76956 1.7207 7.35756C1.47918 6.95977 1.35132 6.47673 1.35132 5.92267H3.01352C3.01352 6.39149 3.09876 6.73246 3.28345 6.94556C3.46814 7.15866 3.76648 7.27232 4.17848 7.27232C4.76096 7.2439 5.0593 6.94556 5.0593 6.33467Z" fill="#100E0E"/>
<path d="M71.1068 24.4914C71.1068 24.2215 71.0358 24.0226 70.8795 23.8663C70.7375 23.71 70.4533 23.5679 70.0413 23.4401C69.6293 23.3122 69.331 23.1417 69.1463 22.9713C68.8906 22.744 68.7627 22.4598 68.7627 22.0904C68.7627 21.7353 68.8906 21.4369 69.1321 21.2096C69.3736 20.9823 69.7004 20.8687 70.0982 20.8687C70.496 20.8687 70.8227 20.9965 71.0784 21.2664C71.3342 21.5364 71.462 21.8631 71.462 22.2751H71.0926C71.0926 21.9626 71.0074 21.7069 70.8227 21.508C70.6522 21.3091 70.4107 21.2096 70.0982 21.2096C69.7998 21.2096 69.5725 21.2949 69.3878 21.4511C69.2173 21.6074 69.1321 21.8205 69.1321 22.0762C69.1321 22.3177 69.2173 22.5024 69.3736 22.6587C69.5299 22.815 69.7998 22.9428 70.1408 23.0565C70.496 23.1702 70.7659 23.298 70.9364 23.4259C71.1211 23.5537 71.2489 23.6958 71.3342 23.8663C71.4194 24.0368 71.462 24.2357 71.462 24.463C71.462 24.8324 71.3342 25.1307 71.0926 25.358C70.8511 25.5853 70.5102 25.699 70.1124 25.699C69.8424 25.699 69.5867 25.6421 69.3594 25.5285C69.1321 25.4148 68.9616 25.2586 68.8195 25.0455C68.6917 24.8324 68.6349 24.5766 68.6349 24.2925H69.0042C69.0042 24.6193 69.1037 24.8892 69.3026 25.0739C69.5015 25.2586 69.7714 25.358 70.1124 25.358C70.4107 25.358 70.6522 25.2728 70.8227 25.1165C71.0074 24.9744 71.1068 24.7613 71.1068 24.4914ZM68.4075 21.2949H67.0721V25.6564H66.7027V21.2949H65.3673V20.9397H68.4075V21.2949ZM64.9269 25.6421H64.5575L62.3412 21.6358V25.6421H61.9719V20.9397H62.3412L64.5717 24.9602V20.9397H64.9411V25.6421H64.9269ZM59.0452 23.9799H60.5938L59.8124 21.4511L59.0452 23.9799ZM60.7074 24.3351H58.9458L58.548 25.6564H58.1644L59.6703 20.9539H60.0113L61.5172 25.6564H61.1336L60.7074 24.3351ZM58.2923 21.2949H56.9568V25.6564H56.5875V21.2949H55.252V20.9397H58.2923V21.2949ZM54.8116 25.6421H54.4422L52.226 21.6358V25.6421H51.8566V20.9397H52.226L54.4564 24.9602V20.9397H54.8258V25.6421H54.8116ZM51.0468 20.9397V24.2783C51.0468 24.7329 50.9189 25.0881 50.6774 25.3296C50.4359 25.5853 50.0949 25.699 49.6403 25.699C49.1857 25.699 48.8447 25.5711 48.6032 25.3296C48.3617 25.0881 48.2481 24.7187 48.2481 24.2499V20.9255H48.6174V24.2357C48.6174 24.9744 48.9584 25.3438 49.6545 25.3438C50.3365 25.3438 50.6774 24.9886 50.6774 24.2641V20.9255H51.0468V20.9397ZM47.1825 22.7866C47.1825 22.2751 47.0831 21.8915 46.8842 21.6216C46.6853 21.3659 46.4012 21.238 46.0318 21.238C45.6766 21.238 45.3925 21.3659 45.1936 21.6216C44.9947 21.8773 44.881 22.2467 44.881 22.7582V23.8095C44.881 24.3209 44.9805 24.7187 45.1936 24.9744C45.3925 25.2301 45.6766 25.358 46.046 25.358C46.4154 25.358 46.6995 25.2301 46.8984 24.9744C47.0973 24.7187 47.1967 24.3209 47.1967 23.8095V22.7866H47.1825ZM47.5519 23.8095C47.5519 24.4204 47.4241 24.8892 47.1541 25.2159C46.8842 25.5427 46.5148 25.7132 46.0318 25.7132C45.5488 25.7132 45.1794 25.5427 44.9094 25.2159C44.6395 24.8892 44.4974 24.4204 44.4974 23.8095V22.7866C44.4974 22.1757 44.6253 21.7069 44.8952 21.3801C45.1652 21.0391 45.5345 20.8829 46.0176 20.8829C46.5006 20.8829 46.87 21.0533 47.1399 21.3801C47.4098 21.7211 47.5377 22.1899 47.5377 22.8008V23.8095H47.5519ZM43.9434 24.1788C43.915 24.7045 43.7729 25.0881 43.5172 25.3438C43.2614 25.5853 42.9205 25.7132 42.4801 25.7132C42.0255 25.7132 41.6703 25.5427 41.4004 25.2017C41.1304 24.8608 41.0026 24.3919 41.0026 23.7953V22.7724C41.0026 22.1757 41.1304 21.7211 41.4004 21.3801C41.6703 21.0391 42.0397 20.8829 42.5085 20.8829C42.9489 20.8829 43.2899 21.0107 43.5314 21.2664C43.7729 21.5222 43.915 21.9058 43.9434 22.4314H43.574C43.5456 22.0052 43.4319 21.7069 43.2757 21.5222C43.1052 21.3375 42.8637 21.2522 42.5227 21.2522C42.1675 21.2522 41.8834 21.3801 41.6987 21.65C41.4998 21.92 41.4004 22.3035 41.4004 22.8008V23.8095C41.4004 24.3067 41.4998 24.7045 41.6845 24.9744C41.8692 25.2586 42.1533 25.3864 42.4943 25.3864C42.8637 25.3864 43.1194 25.3012 43.2899 25.1165C43.4603 24.9318 43.5456 24.6335 43.5882 24.2073H43.9434V24.1788ZM40.4343 24.1788C40.4059 24.7045 40.2638 25.0881 40.0081 25.3438C39.7524 25.5853 39.4114 25.7132 38.971 25.7132C38.5164 25.7132 38.1612 25.5427 37.8913 25.2017C37.6213 24.8608 37.4935 24.3919 37.4935 23.7953V22.7724C37.4935 22.1757 37.6213 21.7211 37.8913 21.3801C38.1612 21.0391 38.5306 20.8829 38.9994 20.8829C39.4398 20.8829 39.7808 21.0107 40.0223 21.2664C40.2638 21.5222 40.4059 21.9058 40.4343 22.4314H40.0649C40.0365 22.0052 39.9228 21.7069 39.7666 21.5222C39.5961 21.3375 39.3546 21.2522 39.0136 21.2522C38.6584 21.2522 38.3743 21.3801 38.1896 21.65C37.9907 21.92 37.8913 22.3035 37.8913 22.8008V23.8095C37.8913 24.3067 37.9907 24.7045 38.1754 24.9744C38.3601 25.2586 38.6442 25.3864 38.9852 25.3864C39.3546 25.3864 39.6103 25.3012 39.7808 25.1165C39.9513 24.9318 40.0365 24.6335 40.0791 24.2073H40.4343V24.1788ZM34.7374 23.9799H36.2859L35.5187 21.4653L34.7374 23.9799ZM36.3996 24.3351H34.6379L34.2401 25.6564H33.8565L35.3624 20.9539H35.7034L37.2093 25.6564H36.7973L36.3996 24.3351ZM28.5716 21.2949V25.3012H29.2819C29.7081 25.3012 30.0207 25.1733 30.2622 24.9176C30.4895 24.6619 30.6174 24.2783 30.6174 23.8095V22.8292C30.6174 22.3462 30.5037 21.9768 30.2764 21.7069C30.0491 21.4369 29.7223 21.3091 29.2961 21.3091H28.5716V21.2949ZM28.2022 25.6421V20.9397H29.3103C29.8218 20.9397 30.2196 21.1102 30.5179 21.4369C30.8163 21.7637 30.9725 22.2183 30.9725 22.7866V23.7668C30.9725 24.3635 30.8163 24.8182 30.5179 25.1449C30.2196 25.4717 29.7934 25.6421 29.2535 25.6421H28.2022ZM27.3356 23.3975H25.5029V25.3012H27.6055V25.6421H25.1477V20.9397H27.6055V21.2949H25.5171V23.0565H27.3498V23.3975H27.3356ZM22.0933 23.3406H23.0735C23.3577 23.3406 23.5708 23.2412 23.7413 23.0565C23.9117 22.8718 23.997 22.6161 23.997 22.3177C23.997 21.991 23.9117 21.7353 23.7413 21.5506C23.5708 21.3659 23.3293 21.2806 23.0167 21.2806H22.1075V23.3406H22.0933ZM23.2014 23.6816H22.1075V25.6421H21.7381V20.9397H23.0309C23.4571 20.9397 23.7981 21.0675 24.0254 21.3091C24.2669 21.5506 24.3806 21.8915 24.3806 22.332C24.3806 22.6303 24.3095 22.9002 24.1675 23.1275C24.0254 23.3548 23.8265 23.5111 23.5708 23.5964L24.5511 25.5995V25.6421H24.1533L23.2014 23.6816ZM20.8715 23.3975H19.0388V25.3012H21.1414V25.6421H18.6694V20.9397H21.1272V21.2949H19.0388V23.0565H20.8715V23.3975ZM18.1438 21.2949H16.8083V25.6564H16.4389V21.2949H15.1035V20.9397H18.1438V21.2949ZM12.6741 23.3406H13.6544C13.9385 23.3406 14.1516 23.2412 14.3221 23.0565C14.4926 22.8718 14.5779 22.6161 14.5779 22.3177C14.5779 21.991 14.4926 21.7353 14.3221 21.5506C14.1516 21.3659 13.9101 21.2806 13.5976 21.2806H12.6883V23.3406H12.6741ZM13.7681 23.6816H12.6741V25.6421H12.3048V20.9397H13.5976C14.0238 20.9397 14.3647 21.0675 14.5921 21.3091C14.8336 21.5506 14.9472 21.8915 14.9472 22.332C14.9472 22.6303 14.8762 22.9002 14.7341 23.1275C14.5921 23.3548 14.3932 23.5111 14.1374 23.5964L15.1177 25.5995V25.6421H14.7199L13.7681 23.6816ZM9.39235 23.9799H10.9409L10.1595 21.4511L9.39235 23.9799ZM11.0403 24.3351H9.2787L8.88091 25.6564H8.49732L10.0032 20.9539H10.3442L11.8501 25.6564H11.4666L11.0403 24.3351ZM7.95746 25.6421H7.58809V23.3833H5.37182V25.6421H5.00244V20.9397H5.37182V23.0565H7.58809V20.9397H7.95746V25.6421ZM4.32051 24.1788C4.2921 24.7045 4.15003 25.0881 3.89431 25.3438C3.63859 25.5853 3.29762 25.7132 2.85721 25.7132C2.40259 25.7132 2.04742 25.5427 1.77749 25.2017C1.50756 24.8608 1.3797 24.3919 1.3797 23.7953V22.7724C1.3797 22.1757 1.50756 21.7211 1.77749 21.3801C2.04742 21.0391 2.4168 20.8829 2.88562 20.8829C3.32604 20.8829 3.667 21.0107 3.90852 21.2664C4.15003 21.5222 4.2921 21.9058 4.32051 22.4314H3.95114C3.92272 22.0052 3.80907 21.7069 3.65279 21.5222C3.48231 21.3375 3.2408 21.2522 2.89983 21.2522C2.54466 21.2522 2.26052 21.3801 2.07583 21.65C1.87694 21.92 1.77749 22.3035 1.77749 22.8008V23.8095C1.77749 24.3067 1.87694 24.7045 2.06163 24.9744C2.24632 25.2586 2.53045 25.3864 2.87142 25.3864C3.2408 25.3864 3.49652 25.3012 3.667 25.1165C3.83748 24.9318 3.92272 24.6335 3.96534 24.2073H4.32051V24.1788Z" fill="#100E0E"/>
<path d="M1.36541 27.8872H0.939209V32.4902H1.36541V27.8872Z" fill="#100E0E"/>
<path d="M2.65826 27.8872H2.23206V32.4902H2.65826V27.8872Z" fill="#100E0E"/>
<path d="M3.95105 27.8872H3.52484V32.4902H3.95105V27.8872Z" fill="#100E0E"/>
<path d="M5.24395 27.8872H4.81775V32.4902H5.24395V27.8872Z" fill="#100E0E"/>
<path d="M6.55108 27.8872H6.12488V32.4902H6.55108V27.8872Z" fill="#100E0E"/>
<path d="M7.84405 27.8872H7.41785V32.4902H7.84405V27.8872Z" fill="#100E0E"/>
<path d="M9.13629 27.8872H8.71008V32.4902H9.13629V27.8872Z" fill="#100E0E"/>
<path d="M10.4293 27.8872H10.0031V32.4902H10.4293V27.8872Z" fill="#100E0E"/>
<path d="M11.7222 27.8872H11.296V32.4902H11.7222V27.8872Z" fill="#100E0E"/>
<path d="M13.0151 27.8872H12.5889V32.4902H13.0151V27.8872Z" fill="#100E0E"/>
<path d="M14.3221 27.8872H13.8959V32.4902H14.3221V27.8872Z" fill="#100E0E"/>
<path d="M15.6149 27.8872H15.1887V32.4902H15.6149V27.8872Z" fill="#100E0E"/>
<path d="M16.9076 27.8872H16.4814V32.4902H16.9076V27.8872Z" fill="#100E0E"/>
<path d="M18.2006 27.8872H17.7744V32.4902H18.2006V27.8872Z" fill="#100E0E"/>
<path d="M19.4936 27.8872H19.0674V32.4902H19.4936V27.8872Z" fill="#100E0E"/>
<path d="M20.7864 27.8872H20.3602V32.4902H20.7864V27.8872Z" fill="#100E0E"/>
<path d="M22.093 27.8872H21.6667V32.4902H22.093V27.8872Z" fill="#100E0E"/>
<path d="M23.3858 27.8872H22.9596V32.4902H23.3858V27.8872Z" fill="#100E0E"/>
<path d="M24.6789 27.8872H24.2527V32.4902H24.6789V27.8872Z" fill="#100E0E"/>
<path d="M25.9718 27.8872H25.5456V32.4902H25.9718V27.8872Z" fill="#100E0E"/>
<path d="M27.2646 27.8872H26.8384V32.4902H27.2646V27.8872Z" fill="#100E0E"/>
<path d="M28.5572 27.8872H28.131V32.4902H28.5572V27.8872Z" fill="#100E0E"/>
<path d="M29.8643 27.8872H29.438V32.4902H29.8643V27.8872Z" fill="#100E0E"/>
<path d="M31.1572 27.8872H30.731V32.4902H31.1572V27.8872Z" fill="#100E0E"/>
<path d="M32.4501 27.8872H32.0239V32.4902H32.4501V27.8872Z" fill="#100E0E"/>
<path d="M33.743 27.8872H33.3168V32.4902H33.743V27.8872Z" fill="#100E0E"/>
<path d="M35.0358 27.8872H34.6096V32.4902H35.0358V27.8872Z" fill="#100E0E"/>
<path d="M36.3287 27.8872H35.9025V32.4902H36.3287V27.8872Z" fill="#100E0E"/>
<path d="M37.6355 27.8872H37.2093V32.4902H37.6355V27.8872Z" fill="#100E0E"/>
<path d="M38.9283 27.8872H38.5021V32.4902H38.9283V27.8872Z" fill="#100E0E"/>
<path d="M40.2211 27.8872H39.7949V32.4902H40.2211V27.8872Z" fill="#100E0E"/>
<path d="M41.5139 27.8872H41.0876V32.4902H41.5139V27.8872Z" fill="#100E0E"/>
<path d="M42.8067 27.8872H42.3805V32.4902H42.8067V27.8872Z" fill="#100E0E"/>
<path d="M44.0996 27.8872H43.6734V32.4902H44.0996V27.8872Z" fill="#100E0E"/>
<path d="M45.4068 27.8872H44.9806V32.4902H45.4068V27.8872Z" fill="#100E0E"/>
<path d="M46.6998 27.8872H46.2736V32.4902H46.6998V27.8872Z" fill="#100E0E"/>
<path d="M47.9921 27.8872H47.5659V32.4902H47.9921V27.8872Z" fill="#100E0E"/>
<path d="M49.285 27.8872H48.8588V32.4902H49.285V27.8872Z" fill="#100E0E"/>
<path d="M50.5779 27.8872H50.1517V32.4902H50.5779V27.8872Z" fill="#100E0E"/>
<path d="M51.8707 27.8872H51.4445V32.4902H51.8707V27.8872Z" fill="#100E0E"/>
<path d="M53.1635 27.8872H52.7373V32.4902H53.1635V27.8872Z" fill="#100E0E"/>
<path d="M54.4706 27.8872H54.0444V32.4902H54.4706V27.8872Z" fill="#100E0E"/>
<path d="M55.7634 27.8872H55.3372V32.4902H55.7634V27.8872Z" fill="#100E0E"/>
<path d="M57.0561 27.8872H56.6299V32.4902H57.0561V27.8872Z" fill="#100E0E"/>
<path d="M58.3491 27.8872H57.9229V32.4902H58.3491V27.8872Z" fill="#100E0E"/>
<path d="M59.6421 27.8872H59.2159V32.4902H59.6421V27.8872Z" fill="#100E0E"/>
<path d="M60.9349 27.8872H60.5087V32.4902H60.9349V27.8872Z" fill="#100E0E"/>
<path d="M62.2415 27.8872H61.8153V32.4902H62.2415V27.8872Z" fill="#100E0E"/>
<path d="M63.5345 27.8872H63.1083V32.4902H63.5345V27.8872Z" fill="#100E0E"/>
<path d="M64.8273 27.8872H64.4011V32.4902H64.8273V27.8872Z" fill="#100E0E"/>
<path d="M66.1202 27.8872H65.694V32.4902H66.1202V27.8872Z" fill="#100E0E"/>
<path d="M67.413 27.8872H66.9868V32.4902H67.413V27.8872Z" fill="#100E0E"/>
<path d="M68.7057 27.8872H68.2795V32.4902H68.7057V27.8872Z" fill="#100E0E"/>
<path d="M70.0129 27.8872H69.5867V32.4902H70.0129V27.8872Z" fill="#100E0E"/>
<path d="M71.3058 27.8872H70.8796V32.4902H71.3058V27.8872Z" fill="#100E0E"/>
</svg>
