<svg xmlns="http://www.w3.org/2000/svg" width="100" height="46" viewBox="0 0 100 46" fill="#000">
    <path d="M59.0001 45.1714H60.8868V37.96C60.8868 35.8216 62.4553 34.7069 64.2056 34.7069C66.1151 34.7069 67.0016 35.6396 67.0016 37.7325V45.1714H68.8883V37.869C68.8883 34.4111 67.1607 33.0689 64.7057 33.0689C62.7508 33.0689 61.4324 34.0471 60.8868 35.1618V33.2737H59.0001V45.1714Z" fill="black"/>
    <path d="M76.0864 45.3761C78.7687 45.3761 80.7464 44.1249 81.1555 41.7363H79.2688C79.0188 43.124 77.9504 43.8064 76.1091 43.8064C73.6769 43.8064 72.3812 42.305 72.2903 39.5979H81.2465V38.9837C81.2465 34.7296 78.6551 33.0689 75.9046 33.0689C72.6312 33.0689 70.3353 35.5713 70.3353 39.1656V39.3476C70.3353 43.0102 72.7221 45.3761 76.0864 45.3761ZM72.3585 38.0737C72.6767 35.9581 73.9724 34.6386 75.9046 34.6386C77.8595 34.6386 79.1324 35.6168 79.3143 38.0737H72.3585Z" fill="black"/>
    <path d="M85.8665 45.3761C87.6168 45.3761 88.6852 44.7846 89.5717 43.6699V45.1714H91.4584V37.323C91.4584 34.0016 89.3899 33.0689 87.1167 33.0689C84.8208 33.0689 82.6613 34.0699 82.4113 36.777H84.298C84.4799 35.3211 85.3891 34.6386 87.0258 34.6386C88.8443 34.6386 89.5717 35.4348 89.5717 37.323V38.1874H87.8669C84.8208 38.1874 81.9112 39.1202 81.9112 41.8728C81.9112 44.3069 83.6615 45.3761 85.8665 45.3761ZM86.0483 43.8747C84.3889 43.8747 83.7979 43.1012 83.7979 41.8728C83.7979 40.1211 85.5482 39.5296 87.9351 39.5296H89.5717V41.0083C89.5717 42.851 88.0487 43.8747 86.0483 43.8747Z" fill="black"/>
    <path d="M93.8007 45.1714H95.6874V38.6424C95.6874 35.7078 97.2104 34.9571 99.5972 34.8434V33.0689C97.4604 33.1372 96.4375 34.0699 95.6874 35.4121V33.2737H93.8007V45.1714Z" fill="black"/>
    <path d="M6.35358 45.3762C9.23507 45.3762 11.3161 43.4538 11.5677 40.8676H9.80679C9.60097 42.8129 8.06875 43.797 6.37645 43.797C4.06669 43.797 2.46587 42.2408 2.46587 39.3113V39.1282C2.46587 36.3132 4.1353 34.5738 6.30785 34.5738C7.95441 34.5738 9.32654 35.2833 9.62384 37.1829H11.4991C11.1332 34.139 8.80056 32.9947 6.30785 32.9947C3.1062 32.9947 0.499146 35.4664 0.499146 39.1282V39.3113C0.499146 43.0189 3.01472 45.3762 6.35358 45.3762Z" fill="black"/>
    <path d="M18.0467 43.797C15.6226 43.797 14.1362 42.0119 14.1362 39.2884V39.1053C14.1362 36.359 15.6455 34.5738 18.0467 34.5738C20.4251 34.5738 21.9573 36.359 21.9573 39.1282V39.2884C21.9573 41.989 20.448 43.797 18.0467 43.797ZM18.0239 45.3762C21.4313 45.3762 23.924 42.8816 23.924 39.2655V39.0824C23.924 35.4893 21.4313 32.9947 18.0467 32.9947C14.6621 32.9947 12.1694 35.5122 12.1694 39.1053V39.2884C12.1694 42.79 14.6164 45.3762 18.0239 45.3762Z" fill="black"/>
    <path d="M29.9961 45.3762C31.7341 45.3762 33.4036 44.2777 34.0896 43.1105V45.1702H35.9878V-0.330078H34.0896V35.1231C33.4036 33.9559 32.1686 32.9947 30.179 32.9947C26.8859 32.9947 24.599 35.5808 24.599 39.2426V39.4257C24.599 43.1562 26.8631 45.3762 29.9961 45.3762ZM30.2019 43.797C28.1895 43.797 26.5658 42.3552 26.5658 39.3342V39.1511C26.5658 36.2445 27.9836 34.5738 30.362 34.5738C32.6946 34.5738 34.1582 36.0157 34.1582 39.0824V39.2655C34.1582 42.3323 32.4202 43.797 30.2019 43.797Z" fill="black"/>
    <path d="M43.3505 45.3762C46.049 45.3762 48.0386 44.1175 48.4502 41.7144H46.5521C46.3006 43.1105 45.2257 43.797 43.3733 43.797C40.9264 43.797 39.6228 42.2865 39.5314 39.5631H48.5417V38.9451C48.5417 34.6654 45.9347 32.9947 43.1675 32.9947C39.8744 32.9947 37.5646 35.5122 37.5646 39.1282V39.3113C37.5646 42.996 39.9659 45.3762 43.3505 45.3762ZM39.6 38.0297C39.9201 35.9012 41.2237 34.5738 43.1675 34.5738C45.1342 34.5738 46.4149 35.5579 46.5978 38.0297H39.6Z" fill="black"/>
    <path d="M50.1279 45.1702H52.0489V-0.330078H50.1279V45.1702Z" fill="black"/>
    <path d="M54.607 45.1702H56.5051V33.2006H54.607V45.1702ZM55.5217 30.706C56.2078 30.706 56.7795 30.1339 56.7795 29.4473C56.7795 28.7607 56.2078 28.1885 55.5217 28.1885C54.8357 28.1885 54.2639 28.7607 54.2639 29.4473C54.2639 30.1339 54.8357 30.706 55.5217 30.706Z" fill="black"/>
  </svg>